<?xml version="1.0" encoding="UTF-8" standalone="no"?>
<svg
   xmlns:dc="http://purl.org/dc/elements/1.1/"
   xmlns:cc="http://creativecommons.org/ns#"
   xmlns:rdf="http://www.w3.org/1999/02/22-rdf-syntax-ns#"
   xmlns:svg="http://www.w3.org/2000/svg"
   xmlns="http://www.w3.org/2000/svg"
   xmlns:sodipodi="http://sodipodi.sourceforge.net/DTD/sodipodi-0.dtd"
   xmlns:inkscape="http://www.inkscape.org/namespaces/inkscape"
   width="325pt"
   height="300pt"
   viewBox="0 0 325 300"
   version="1.1"
   id="svg9"
   sodipodi:docname="strided.svg"
   inkscape:version="0.92.5 (2060ec1f9f, 2020-04-08)">
  <metadata
     id="metadata15">
    <rdf:RDF>
      <cc:Work
         rdf:about="">
        <dc:format>image/svg+xml</dc:format>
        <dc:type
           rdf:resource="http://purl.org/dc/dcmitype/StillImage" />
        <dc:title />
      </cc:Work>
    </rdf:RDF>
  </metadata>
  <defs
     id="defs13" />
  <sodipodi:namedview
     pagecolor="#ffffff"
     bordercolor="#666666"
     borderopacity="1"
     objecttolerance="10"
     gridtolerance="10"
     guidetolerance="10"
     inkscape:pageopacity="0"
     inkscape:pageshadow="2"
     inkscape:window-width="3840"
     inkscape:window-height="2032"
     id="namedview11"
     showgrid="false"
     inkscape:zoom="3.337544"
     inkscape:cx="44.417181"
     inkscape:cy="201.46839"
     inkscape:window-x="0"
     inkscape:window-y="54"
     inkscape:window-maximized="1"
     inkscape:current-layer="svg9"
     inkscape:snap-bbox="true"
     inkscape:snap-bbox-midpoints="true"
     inkscape:snap-nodes="true"
     inkscape:snap-object-midpoints="true"
     inkscape:bbox-nodes="true" />
  <path
     style="fill:#ca3a33;fill-opacity:1;fill-rule:nonzero;stroke:none;stroke-width:0.23904271"
     d="m 49.759704,144.47686 c 0,9.90158 -8.026604,17.9282 -17.928199,17.9282 -9.901597,0 -17.928205,-8.02662 -17.928205,-17.9282 0,-9.90158 8.026608,-17.9282 17.928205,-17.9282 9.901595,0 17.928199,8.02662 17.928199,17.9282"
     id="path830"
     inkscape:connector-curvature="0" />
  <path
     inkscape:connector-curvature="0"
     id="path832"
     d="m 87.844848,144.47686 c 0,9.90158 -8.026606,17.9282 -17.928204,17.9282 -9.901595,0 -17.928204,-8.02662 -17.928204,-17.9282 0,-9.90158 8.026609,-17.9282 17.928204,-17.9282 9.901598,0 17.928204,8.02662 17.928204,17.9282"
     style="fill:#838383;fill-opacity:1;fill-rule:nonzero;stroke:none;stroke-width:0.23904271" />
  <path
     inkscape:connector-curvature="0"
     id="path834"
     d="m 125.92999,144.47686 c 0,9.90158 -8.02662,17.9282 -17.9282,17.9282 -9.901601,0 -17.928206,-8.02662 -17.928206,-17.9282 0,-9.90158 8.026605,-17.9282 17.928206,-17.9282 9.90158,0 17.9282,8.02662 17.9282,17.9282"
     style="fill:#389723;fill-opacity:1;fill-rule:nonzero;stroke:none;stroke-width:0.23904271" />
  <path
     style="fill:#838383;fill-opacity:1;fill-rule:nonzero;stroke:none;stroke-width:0.23904271"
     d="m 164.01513,144.47686 c 0,9.90158 -8.02662,17.9282 -17.9282,17.9282 -9.90159,0 -17.9282,-8.02662 -17.9282,-17.9282 0,-9.90158 8.02661,-17.9282 17.9282,-17.9282 9.90158,0 17.9282,8.02662 17.9282,17.9282"
     id="path836"
     inkscape:connector-curvature="0" />
  <path
     style="fill:#838383;fill-opacity:1;fill-rule:nonzero;stroke:none;stroke-width:0.23904271"
     d="m 202.10027,144.47686 c 0,9.90158 -8.02661,17.9282 -17.9282,17.9282 -9.90158,0 -17.9282,-8.02662 -17.9282,-17.9282 0,-9.90158 8.02662,-17.9282 17.9282,-17.9282 9.90159,0 17.9282,8.02662 17.9282,17.9282"
     id="path838"
     inkscape:connector-curvature="0" />
  <path
     inkscape:connector-curvature="0"
     id="path840"
     d="m 240.18542,144.47686 c 0,9.90158 -8.02662,17.9282 -17.92821,17.9282 -9.90158,0 -17.9282,-8.02662 -17.9282,-17.9282 0,-9.90158 8.02662,-17.9282 17.9282,-17.9282 9.90159,0 17.92821,8.02662 17.92821,17.9282"
     style="fill:#838383;fill-opacity:1;fill-rule:nonzero;stroke:none;stroke-width:0.23904271" />
  <path
     inkscape:connector-curvature="0"
     id="path842"
     d="m 278.27056,144.47686 c 0,9.90158 -8.02662,17.9282 -17.9282,17.9282 -9.90159,0 -17.9282,-8.02662 -17.9282,-17.9282 0,-9.90158 8.02661,-17.9282 17.9282,-17.9282 9.90158,0 17.9282,8.02662 17.9282,17.9282"
     style="fill:#9457b0;fill-opacity:1;fill-rule:nonzero;stroke:none;stroke-width:0.23904271" />
  <path
     style="fill:#838383;fill-opacity:1;fill-rule:nonzero;stroke:none;stroke-width:0.23904271"
     d="m 316.3557,144.47686 c 0,9.90158 -8.02662,17.9282 -17.9282,17.9282 -9.90159,0 -17.9282,-8.02662 -17.9282,-17.9282 0,-9.90158 8.02661,-17.9282 17.9282,-17.9282 9.90158,0 17.9282,8.02662 17.9282,17.9282"
     id="path844"
     inkscape:connector-curvature="0" />
  <path
     style="fill:none;fill-opacity:1;stroke:#515151;stroke-width:2.99999976;stroke-linecap:round;stroke-linejoin:miter;stroke-miterlimit:4;stroke-dasharray:none;stroke-opacity:1"
     d="m 34.741664,120.84344 c 24.240061,-26.121628 37.501581,-25.684917 62.129334,0"
     id="path7536"
     inkscape:connector-curvature="0"
     sodipodi:nodetypes="cc" />
  <g
     id="g7542"
     style="fill:none;fill-opacity:1;stroke:#515151;stroke-linecap:butt;stroke-linejoin:round;stroke-opacity:1"
     transform="matrix(0.08356369,3.8700078,-3.8700078,0.08356369,-7739.1933,-254.40189)"
     inkscape:transform-center-x="4.4186785"
     inkscape:transform-center-y="-4.3900143">
    <path
       sodipodi:nodetypes="cc"
       inkscape:connector-curvature="0"
       id="path7538"
       d="m 140.63047,-2021.7731 -0.0994,2.326"
       style="fill:none;fill-opacity:1;stroke:#515151;stroke-width:0.77501154;stroke-linecap:round;stroke-linejoin:miter;stroke-miterlimit:4;stroke-dasharray:none;stroke-opacity:1" />
    <path
       style="fill:none;fill-opacity:1;stroke:#515151;stroke-width:0.77501154;stroke-linecap:round;stroke-linejoin:miter;stroke-miterlimit:4;stroke-dasharray:none;stroke-opacity:1"
       d="m 140.61782,-2021.7861 -2.32602,-0.1"
       id="path7540"
       inkscape:connector-curvature="0"
       sodipodi:nodetypes="cc" />
  </g>
  <path
     sodipodi:nodetypes="cc"
     inkscape:connector-curvature="0"
     id="path910"
     d="m 248.78378,170.21742 c -46.57877,62.4643 -164.880472,62.30668 -210.460895,0"
     style="fill:none;fill-opacity:1;stroke:#515151;stroke-width:2.99999976;stroke-linecap:round;stroke-linejoin:miter;stroke-miterlimit:4;stroke-dasharray:none;stroke-opacity:1" />
  <g
     inkscape:transform-center-y="4.3215015"
     inkscape:transform-center-x="3.656385"
     transform="matrix(-0.52751532,-3.8347974,-3.8347974,0.52751532,-7432.8701,1776.2081)"
     style="fill:none;fill-opacity:1;stroke:#515151;stroke-linecap:butt;stroke-linejoin:round;stroke-opacity:1"
     id="g916">
    <path
       style="fill:none;fill-opacity:1;stroke:#515151;stroke-width:0.77501154;stroke-linecap:round;stroke-linejoin:miter;stroke-miterlimit:4;stroke-dasharray:none;stroke-opacity:1"
       d="m 140.59371,-2022.47 -0.0994,2.326"
       id="path912"
       inkscape:connector-curvature="0"
       sodipodi:nodetypes="cc" />
    <path
       sodipodi:nodetypes="cc"
       inkscape:connector-curvature="0"
       id="path914"
       d="m 140.58106,-2022.483 -2.32602,-0.1"
       style="fill:none;fill-opacity:1;stroke:#515151;stroke-width:0.77501154;stroke-linecap:round;stroke-linejoin:miter;stroke-miterlimit:4;stroke-dasharray:none;stroke-opacity:1" />
  </g>
</svg>
